PathFileType	4	(X/Y/Z)	C:/Users/opensim2020/Desktop/walking_exp_matlab/subject01_walking09_straight_04.trc																																																																																																																															
DataRate	CameraRate	NumFrames	NumMarkers	Units	OrigDataRate	OrigDataStartFrame	OrigNumFrames																																																																																																																											
100	100	7	43	mm	100	4069	292																																																																																																																											
Frame#	Time	LFHD			RFHD			LBHD			RBHD			C7			T10			CLAV			STRN			RBAK			LSHO			LUPA			LELB			LFRM			LWRA			LWRB			LFIN			RSHO			RUPA			RELB			RFRM			RWRA			RWRB			RFIN			LASI			RASI			LPSI			RPSI			LTHI			LKNE			LTIB			LANK			LHEE			LTOE			RTHI			RKNE			RTIB			RANK			RHEE			RTOE			*39			*40			*41			*42		
		X1	Y1	Z1	X2	Y2	Z2	X3	Y3	Z3	X4	Y4	Z4	X5	Y5	Z5	X6	Y6	Z6	X7	Y7	Z7	X8	Y8	Z8	X9	Y9	Z9	X10	Y10	Z10	X11	Y11	Z11	X12	Y12	Z12	X13	Y13	Z13	X14	Y14	Z14	X15	Y15	Z15	X16	Y16	Z16	X17	Y17	Z17	X18	Y18	Z18	X19	Y19	Z19	X20	Y20	Z20	X21	Y21	Z21	X22	Y22	Z22	X23	Y23	Z23	X24	Y24	Z24	X25	Y25	Z25	X26	Y26	Z26	X27	Y27	Z27	X28	Y28	Z28	X29	Y29	Z29	X30	Y30	Z30	X31	Y31	Z31	X32	Y32	Z32	X33	Y33	Z33	X34	Y34	Z34	X35	Y35	Z35	X36	Y36	Z36	X37	Y37	Z37	X38	Y38	Z38	X39	Y39	Z39	X40	Y40	Z40	X41	Y41	Z41	X42	Y42	Z42	X43	Y43	Z43
																																																																																																																																		
183	1.82	70.33546	1660.45313	-1555.91333	90.34002	1665.8667	-1444.04199	-51.06629	1635.15869	-1541.20764	-33.03674	1640.32458	-1421.66687	-108.48928	1434.32166	-1492.01147	-147.90729	1141.41748	-1467.81226	33.38231	1362.30493	-1492.14746	71.87908	1207.08374	-1492.62524	-164.74391	1242.50793	-1405.15149	-32.21115	1387.15234	-1652.13086	-46.59969	1203.02124	-1735.68579	-30.55641	1051.16736	-1742.32581	44.07985	963.08313	-1764.91052	159.24721	886.75275	-1742.73376	110.64095	860.97162	-1767.51538	182.22824	818.55273	-1780.42615	-26.25662	1398.99243	-1339.69067	-95.61674	1205.3031	-1232.14026	-101.82233	1081.3252	-1225.58887	-81.68943	963.84772	-1190.45508	-10.43375	840.34143	-1206.43713	-51.27229	846.47668	-1165.51074	-21.52403	764.71918	-1166.21594	16.57007	930.07025	-1577.72009	28.13838	938.81146	-1360.85718	-166.26563	945.66962	-1511.63013	-154.80681	947.92462	-1366.66553	-32.30622	596.76117	-1613.81152	-49.57606	462.98553	-1590.52808	-114.53967	283.72153	-1589.2356	-154.10527	70.4511	-1525.21448	-197.99953	43.50727	-1469.67297	-6.82179	33.06237	-1532.31812	62.79753	616.13092	-1291.40369	114.40969	466.45258	-1318.33142	63.65416	298.22263	-1311.03442	43.7048	91.47794	-1356.17444	0.30707	51.3602	-1410.79163	180.2542	52.77495	-1349.32288	82.95094	1700.41223	-1466.91895	-1973.02979	1023.90771	3101.98413	-2012.52869	1022.17517	3140.65601	NaN	NaN	NaN
184	1.83	76.71157	1659.99353	-1555.46948	96.77861	1665.29041	-1443.61707	-44.6751	1634.75159	-1540.8064	-26.63688	1639.76465	-1421.24414	-102.17522	1433.80444	-1491.76721	-141.6044	1140.93298	-1467.672	39.63479	1361.77319	-1492.10144	78.12532	1206.54456	-1492.88818	-158.2879	1241.87585	-1405.0658	-26.04624	1386.81409	-1651.9635	-39.76722	1202.86926	-1735.82031	-23.0177	1051.10193	-1742.73828	52.71631	963.80627	-1765.10901	168.82967	889.09741	-1742.75891	120.56915	862.57886	-1767.48889	192.62138	821.08374	-1780.31213	-19.7696	1398.28882	-1339.50513	-89.5473	1204.66748	-1232.26465	-95.87682	1080.69897	-1225.70984	-76.0239	963.18835	-1190.62048	-5.2576	839.41956	-1206.68359	-45.75456	845.8028	-1165.80127	-16.25583	763.81097	-1166.45508	22.41452	929.59625	-1578.21008	34.94768	938.49231	-1361.4043	-160.08667	945.13947	-1511.43579	-147.7979	947.47388	-1366.43494	-28.27142	596.30383	-1613.75818	-46.87409	462.50912	-1590.58386	-113.09292	283.7547	-1589.13159	-153.84441	70.68365	-1525.13135	-197.98035	44.03748	-1469.46692	-6.75153	32.92627	-1532.26392	68.44373	615.52979	-1291.87366	121.33704	466.15274	-1319.50232	77.06554	296.53409	-1311.40552	65.53929	88.61229	-1355.95447	23.14597	46.97717	-1410.15393	203.57573	55.19881	-1350.07996	89.2408	1699.75305	-1466.46265	-1972.94177	1023.92743	3102.07153	-2012.49976	1022.1142	3140.67944	NaN	NaN	NaN
185	1.84	83.1095	1659.50562	-1554.98022	103.20168	1664.65527	-1443.10181	-38.27927	1634.30945	-1540.25232	-20.21037	1639.23303	-1420.771	-95.86356	1433.27551	-1491.4469	-135.22818	1140.38892	-1467.39465	46.00357	1361.28357	-1492.00024	84.4706	1205.99866	-1493.06335	-151.81326	1241.20032	-1404.90015	-19.88253	1386.49731	-1651.72375	-33.06905	1202.72571	-1735.88501	-15.37386	1050.90649	-1743.00891	61.35387	964.47443	-1765.19885	178.26717	891.18475	-1742.51355	130.46976	864.09772	-1767.46826	203.08784	823.52588	-1780.02014	-13.31754	1397.61194	-1339.20581	-83.41153	1203.98584	-1232.23816	-89.90452	1079.99292	-1225.94287	-70.18869	962.36792	-1190.68311	0.62306	838.65515	-1206.67017	-40.26292	844.87335	-1165.95862	-11.00974	762.99371	-1166.64941	28.32306	929.03076	-1578.56128	41.81607	938.0274	-1361.896	-153.85878	944.57971	-1511.24487	-141.19292	947.13257	-1366.35193	-24.3082	595.81158	-1613.69055	-44.19084	462.12006	-1590.6543	-111.65865	283.77048	-1589.09363	-153.59259	70.97218	-1525.03003	-197.72353	44.53317	-1469.45972	-6.70866	32.96905	-1532.36853	74.30833	614.49518	-1292.22351	128.60074	465.58957	-1320.16382	90.00533	294.75742	-1311.60205	86.76473	86.4691	-1355.77759	45.81622	43.07621	-1409.76404	226.24925	58.13745	-1350.82874	95.81526	1699.26184	-1465.86987	-1973.07788	1023.42029	3101.9104	-2012.46606	1022.12677	3140.76245	NaN	NaN	NaN
186	1.85	89.52343	1659.01697	-1554.36353	109.53894	1664.00464	-1442.48914	-31.8903	1633.86084	-1539.73584	-14.02729	1638.97864	-1419.76733	-89.5127	1432.70947	-1491.04089	-128.82292	1139.80005	-1467.11353	52.32413	1360.71582	-1491.75391	90.9219	1205.51978	-1493.19873	-145.28726	1240.44116	-1404.64075	-13.6401	1386.19812	-1651.44031	-26.29282	1202.5105	-1735.84656	-7.82176	1050.79907	-1743.2948	69.89689	965.12744	-1765.21606	187.61501	893.23254	-1742.1698	140.19193	865.56085	-1767.09741	213.26979	825.92639	-1779.71887	-6.7969	1396.9585	-1338.93225	-77.22189	1203.1947	-1232.19495	-83.8166	1079.28479	-1225.81921	-64.36482	961.66064	-1190.77991	6.29893	837.74347	-1206.72473	-34.49469	844.05096	-1166.07373	-5.51055	761.98688	-1166.80017	34.28318	928.44489	-1578.90283	48.74912	937.55115	-1362.31189	-147.52162	943.9375	-1511.04395	-134.39853	946.71606	-1366.30579	-20.32989	595.38263	-1613.70325	-41.48275	461.80136	-1590.8042	-110.08422	283.96545	-1589.10205	-153.34708	71.32072	-1524.74353	-197.46915	45.04556	-1469.30103	-6.5448	32.88169	-1532.30884	80.04606	613.66766	-1292.73572	134.93028	465.20715	-1320.95593	102.73653	293.47491	-1311.80872	107.66637	84.97887	-1355.61121	68.22945	40.02946	-1409.41736	248.25099	61.39208	-1351.34131	102.08057	1698.54419	-1465.25208	-1973.11096	1023.78864	3101.86279	-2012.53625	1022.08008	3140.62842	NaN	NaN	NaN
187	1.86	95.93066	1658.49011	-1553.69897	115.99865	1663.37708	-1441.83179	-25.48889	1633.39551	-1539.05627	-7.3949	1637.99597	-1419.51855	-83.14664	1432.125	-1490.52148	-122.35356	1139.18542	-1466.72546	58.61059	1360.1167	-1491.4292	97.27776	1204.91138	-1493.19604	-138.71785	1239.65637	-1404.34485	-7.41553	1385.8291	-1651.04065	-19.59986	1202.33618	-1735.75977	-0.26315	1050.64063	-1743.4104	78.40003	965.72943	-1765.17102	196.96498	895.26251	-1741.85876	149.85889	866.9978	-1766.82996	223.42027	828.19336	-1779.26575	-0.28258	1396.09229	-1338.42896	-70.97565	1202.4115	-1232.11218	-77.6544	1078.43115	-1225.91345	-58.42097	960.77972	-1190.80322	12.05168	836.74036	-1206.76733	-28.75158	843.14978	-1166.09473	0.11873	761.00885	-1166.96899	40.31939	927.86017	-1579.18701	55.84874	937.1004	-1362.66284	-141.1541	943.33667	-1510.84839	-127.64597	946.19202	-1366.15125	-16.35287	595.01355	-1613.67993	-38.7246	461.47122	-1590.94788	-108.48953	284.04773	-1589.09045	-152.98921	71.72113	-1524.86035	-197.27574	45.61656	-1469.17761	-6.4042	32.81936	-1532.2937	85.87523	612.58344	-1293.04932	141.06514	464.63806	-1321.67468	114.86314	292.2616	-1311.86792	127.80829	83.76431	-1355.53955	89.95256	37.37953	-1408.9646	269.60965	65.23195	-1352.05518	108.6969	1698.03711	-1464.51025	-1973.14636	1023.45721	3101.88013	-2012.58594	1022.09381	3140.63184	NaN	NaN	NaN
188	1.87	102.31899	1658.00232	-1552.96826	122.38365	1662.72815	-1441.05872	-19.11854	1632.86255	-1538.30688	-1.23457	1637.60315	-1418.58813	-76.68143	1431.43335	-1489.88452	-115.81387	1138.51648	-1466.22034	65.03964	1359.4906	-1491.0072	103.81704	1204.35815	-1493.16992	-132.10951	1238.83313	-1403.97925	-1.11199	1385.43054	-1650.56995	-12.89925	1202.09888	-1735.48242	7.30341	1050.43127	-1743.46436	86.9085	966.27972	-1765.00061	206.1524	897.1535	-1741.36377	159.48367	868.44507	-1766.63904	233.46486	830.47565	-1778.79028	6.28417	1395.28894	-1337.974	-64.63014	1201.56067	-1231.87329	-71.45961	1077.58752	-1225.67346	-52.36013	959.85876	-1190.75769	17.68303	835.64948	-1206.91272	-22.83435	842.14349	-1166.10474	5.86514	759.93243	-1167.07849	46.3445	927.21155	-1579.45459	62.97937	936.43341	-1363.02368	-134.71109	942.67206	-1510.52368	-120.56873	945.57385	-1365.95166	-12.37063	594.64795	-1613.69128	-35.8266	461.1712	-1591.04663	-106.72464	284.2514	-1589.15796	-152.82951	72.22501	-1524.71179	-197.32413	46.55384	-1469.21533	-6.39606	32.77131	-1532.33215	91.49086	611.57703	-1293.36914	147.32793	464.11273	-1322.22388	126.85739	291.35175	-1312.09241	147.65445	83.37735	-1355.59192	110.07369	36.55827	-1408.43298	290.06705	69.21109	-1352.84509	114.93095	1697.3158	-1463.77063	-1973.10156	1023.34442	3101.82324	-2012.50623	1022.02917	3140.60889	NaN	NaN	NaN
189	1.88	108.66645	1657.48206	-1552.11829	128.8196	1662.1156	-1440.22278	-12.71589	1632.32043	-1537.4978	5.19104	1636.93005	-1417.76367	-70.23843	1430.89661	-1489.3136	-109.23193	1137.83142	-1465.67566	71.61696	1358.98547	-1490.59082	110.29762	1203.74927	-1493.02893	-125.41335	1237.98438	-1403.51514	5.20355	1385.05798	-1650.01526	-6.20683	1201.82959	-1735.14197	14.84639	1050.29041	-1743.42834	95.32142	966.84711	-1764.80347	215.27103	899.00555	-1740.82886	168.99988	869.76788	-1766.24475	243.3909	832.56281	-1778.19067	12.74464	1394.16675	-1337.52002	-58.12231	1200.58398	-1231.55432	-65.20548	1076.67834	-1225.64661	-46.21411	958.88867	-1190.7124	23.9682	834.7594	-1206.80139	-16.93472	841.07922	-1166.10413	11.74153	758.89056	-1167.14551	52.48566	926.58978	-1579.70288	70.21096	935.80127	-1363.33154	-128.21101	942.00128	-1510.07996	-113.57932	944.89282	-1365.67212	-8.38589	594.38379	-1613.75134	-32.95943	460.90009	-1591.18518	-104.97266	284.56125	-1589.24365	-152.34601	72.5078	-1524.72961	-196.8761	47.06351	-1468.91772	-6.20787	32.72954	-1532.44678	97.49257	610.53119	-1293.40393	153.55653	463.53143	-1322.70752	138.68166	290.61044	-1312.26001	166.60262	83.23151	-1355.64758	130.43738	35.54351	-1407.36401	309.47571	73.409	-1353.84058	121.48973	1696.7699	-1462.84631	-1973.07458	1023.47479	3101.9209	-2012.51587	1022.1969	3140.73779	NaN	NaN	NaN
